# xmcd CD database file
#
# Track frame offsets:
#	150
#	27165
#	53797
#	85707
#	121662
#	142012
#	177595
#	204907
#	249982
#	270145
#
# Disc length: 4390 seconds
#
# Revision: 0
# Processed by: cddbd v1.5.1PL0 Copyright (c) Steve Scherf et al.
# Submitted via: CDex 1.51
#
DISCID=7a11240a
DTITLE=Miles Davis - 'Round About Midnight - Cookin'
DYEAR=1956
DGENRE=Jazz
TTITLE0='Round Midnight
TTITLE1=Ah-Leu-Cha
TTITLE2=All Of You
TTITLE3=Bye Bye Blackbird
TTITLE4=Tadd's Delight
TTITLE5=Dear Old Stockholm
TTITLE6=My Funny Valentine
TTITLE7=Blues By Five
TTITLE8=Airegin
TTITLE9=Tune Up/When Lights Are Low
EXTD=YEAR: 1956
EXTT0=
EXTT1=
EXTT2=
EXTT3=
EXTT4=
EXTT5=
EXTT6=
EXTT7=
EXTT8=
EXTT9=
PLAYORDER=
